ffmpeg started on 2025-05-26 at 18:31:56
Report written to "D:\Convert\FFMetrics\reports\psnr_report-6.txt"
Log level: 32
Command line:
ffmpeg -hide_banner -nostdin -i "G:\\\xc0\xed\xe8\xec\xe5\\\xce\xed\xe3\xee\xe8\xed\xe3\xe8\\!_34_\xc2\xe5\xf1\xed\xe0_2024\\DreamCast\\\xc7\xe0\xe1\xe2\xe5\xed\xe8\xe5 \xe1\xfd\xf2\xf2\xe5\xf0\xe8\\[DC] Boukyaku Battery - 02_Telegram_HEVC.mkv" -i "G:\\\xc0\xed\xe8\xec\xe5\\\xce\xed\xe3\xee\xe8\xed\xe3\xe8\\!_34_\xc2\xe5\xf1\xed\xe0_2024\\DreamCast\\\xc7\xe0\xe1\xe2\xe5\xed\xe8\xe5 \xe1\xfd\xf2\xf2\xe5\xf0\xe8\\[DC] Boukyaku Battery - 02_Telegram.mp4" -lavfi "[0:v]settb=AVTB,setpts=PTS-STARTPTS,format=pix_fmts=yuv420p10,fps=24000/1001,scale=1920:1080:flags=bicubic[main];[1:v]settb=AVTB,setpts=PTS-STARTPTS,format=pix_fmts=yuv420p,fps=24000/1001,scale=1920:1080:flags=bicubic[ref];[main][ref]psnr=eof_action=endall:stats_file='D\\:/Convert/FFMetrics/logs/psnr_logfile-6.txt'" -f null -
Input #0, matroska,webm, from 'G:\Аниме\Онгоинги\!_34_Весна_2024\DreamCast\Забвение бэттери\[DC] Boukyaku Battery - 02_Telegram_HEVC.mkv':
  Metadata:
    COMPATIBLE_BRANDS: isomiso2avc1mp41
    MAJOR_BRAND     : isom
    MINOR_VERSION   : 512
    ENCODER         : Lavf61.7.100
  Duration: 00:24:06.66, start: -0.021000, bitrate: 1326 kb/s
  Stream #0:0: Video: hevc (Main 10), yuv420p10le(tv, bt709, progressive), 1920x1080 [SAR 1:1 DAR 16:9], 23.98 fps, 23.98 tbr, 1k tbn (default)
      Metadata:
        HANDLER_NAME    : VideoHandler
        VENDOR_ID       : [0][0][0][0]
        ENCODER         : Lavc61.19.100 libx265
        BPS             : 1132324
        DURATION        : 00:24:01.481708333
        NUMBER_OF_FRAMES: 34561
        NUMBER_OF_BYTES : 204028004
        _STATISTICS_WRITING_APP: mkvpropedit v66.0.0 ('Josie') 64-bit
        _STATISTICS_WRITING_DATE_UTC: 2025-05-26 10:13:56
        _STATISTICS_TAGS: BPS DURATION NUMBER_OF_FRAMES NUMBER_OF_BYTES
  Stream #0:1: Audio: aac (LC), 48000 Hz, stereo, fltp (default)
      Metadata:
        HANDLER_NAME    : SoundHandler
        VENDOR_ID       : [0][0][0][0]
        ENCODER         : Lavc61.19.100 aac
        BPS             : 194103
        DURATION        : 00:24:06.656000000
        NUMBER_OF_FRAMES: 67813
        NUMBER_OF_BYTES : 35100039
        _STATISTICS_WRITING_APP: mkvpropedit v66.0.0 ('Josie') 64-bit
        _STATISTICS_WRITING_DATE_UTC: 2025-05-26 10:13:56
        _STATISTICS_TAGS: BPS DURATION NUMBER_OF_FRAMES NUMBER_OF_BYTES
Input #1, mov,mp4,m4a,3gp,3g2,mj2, from 'G:\Аниме\Онгоинги\!_34_Весна_2024\DreamCast\Забвение бэттери\[DC] Boukyaku Battery - 02_Telegram.mp4':
  Metadata:
    major_brand     : isom
    minor_version   : 512
    compatible_brands: isomiso2avc1mp41
    encoder         : Lavf60.16.100
  Duration: 00:24:06.61, start: 0.000000, bitrate: 3898 kb/s
  Stream #1:0[0x1](und): Video: h264 (High) (avc1 / 0x31637661), yuv420p(tv, bt709, progressive), 1920x1080 [SAR 1:1 DAR 16:9], 3764 kb/s, 23.98 fps, 23.98 tbr, 24k tbn (default)
      Metadata:
        handler_name    : VideoHandler
        vendor_id       : [0][0][0][0]
        encoder         : Lavc60.31.102 h264_qsv
  Stream #1:1[0x2](und): Audio: aac (HE-AACv2) (mp4a / 0x6134706D), 48000 Hz, stereo, fltp, 144 kb/s (default)
      Metadata:
        handler_name    : SoundHandler
        vendor_id       : [0][0][0][0]
Stream mapping:
  Stream #0:0 (hevc) -> settb:default
  Stream #1:0 (h264) -> settb:default
  psnr:default -> Stream #0:0 (wrapped_avframe)
  Stream #0:1 -> #0:1 (aac (native) -> pcm_s16le (native))
Output #0, null, to 'pipe:':
  Metadata:
    COMPATIBLE_BRANDS: isomiso2avc1mp41
    MAJOR_BRAND     : isom
    MINOR_VERSION   : 512
    encoder         : Lavf61.7.100
  Stream #0:0: Video: wrapped_avframe, yuv420p10le(tv, bt709, progressive), 1920x1080 [SAR 1:1 DAR 16:9], q=2-31, 200 kb/s, 23.98 fps, 23.98 tbn
      Metadata:
        encoder         : Lavc61.19.100 wrapped_avframe
  Stream #0:1: Audio: pcm_s16le, 48000 Hz, stereo, s16, 1536 kb/s (default)
      Metadata:
        HANDLER_NAME    : SoundHandler
        VENDOR_ID       : [0][0][0][0]
        _STATISTICS_TAGS: BPS DURATION NUMBER_OF_FRAMES NUMBER_OF_BYTES
        BPS             : 194103
        DURATION        : 00:24:06.656000000
        NUMBER_OF_FRAMES: 67813
        NUMBER_OF_BYTES : 35100039
        _STATISTICS_WRITING_APP: mkvpropedit v66.0.0 ('Josie') 64-bit
        _STATISTICS_WRITING_DATE_UTC: 2025-05-26 10:13:56
        encoder         : Lavc61.19.100 pcm_s16le
frame=  177 fps=0.0 q=-0.0 size=N/A time=00:00:07.38 bitrate=N/A speed=14.7x    frame=  429 fps=418 q=-0.0 size=N/A time=00:00:17.89 bitrate=N/A speed=17.4x    frame=  696 fps=450 q=-0.0 size=N/A time=00:00:29.02 bitrate=N/A speed=18.8x    frame=  946 fps=460 q=-0.0 size=N/A time=00:00:39.45 bitrate=N/A speed=19.2x    frame= 1152 fps=447 q=-0.0 size=N/A time=00:00:48.04 bitrate=N/A speed=18.6x    frame= 1357 fps=440 q=-0.0 size=N/A time=00:00:56.59 bitrate=N/A speed=18.3x    frame= 1572 fps=436 q=-0.0 size=N/A time=00:01:05.56 bitrate=N/A speed=18.2x    frame= 1757 fps=427 q=-0.0 size=N/A time=00:01:13.28 bitrate=N/A speed=17.8x    frame= 1950 fps=420 q=-0.0 size=N/A time=00:01:21.33 bitrate=N/A speed=17.5x    frame= 2160 fps=420 q=-0.0 size=N/A time=00:01:30.09 bitrate=N/A speed=17.5x    frame= 2351 fps=414 q=-0.0 size=N/A time=00:01:38.05 bitrate=N/A speed=17.3x    frame= 2574 fps=417 q=-0.0 size=N/A time=00:01:47.35 bitrate=N/A speed=17.4x    frame= 2812 fps=419 q=-0.0 size=N/A time=00:01:57.28 bitrate=N/A speed=17.5x    frame= 3034 fps=421 q=-0.0 size=N/A time=00:02:06.54 bitrate=N/A speed=17.5x    frame= 3294 fps=426 q=-0.0 size=N/A time=00:02:17.38 bitrate=N/A speed=17.8x    frame= 3553 fps=431 q=-0.0 size=N/A time=00:02:28.18 bitrate=N/A speed=  18x    frame= 3825 fps=436 q=-0.0 size=N/A time=00:02:39.53 bitrate=N/A speed=18.2x    frame= 4103 fps=442 q=-0.0 size=N/A time=00:02:51.12 bitrate=N/A speed=18.5x    frame= 4368 fps=446 q=-0.0 size=N/A time=00:03:02.18 bitrate=N/A speed=18.6x    frame= 4659 fps=452 q=-0.0 size=N/A time=00:03:14.31 bitrate=N/A speed=18.9x    frame= 4922 fps=455 q=-0.0 size=N/A time=00:03:25.28 bitrate=N/A speed=  19x    frame= 5188 fps=458 q=-0.0 size=N/A time=00:03:36.38 bitrate=N/A speed=19.1x    frame= 5441 fps=459 q=-0.0 size=N/A time=00:03:46.93 bitrate=N/A speed=19.1x    frame= 5701 fps=461 q=-0.0 size=N/A time=00:03:57.77 bitrate=N/A speed=19.2x    frame= 5957 fps=462 q=-0.0 size=N/A time=00:04:08.45 bitrate=N/A speed=19.3x    frame= 6200 fps=463 q=-0.0 size=N/A time=00:04:18.59 bitrate=N/A speed=19.3x    frame= 6454 fps=464 q=-0.0 size=N/A time=00:04:29.18 bitrate=N/A speed=19.3x    frame= 6672 fps=462 q=-0.0 size=N/A time=00:04:38.27 bitrate=N/A speed=19.3x    frame= 6915 fps=463 q=-0.0 size=N/A time=00:04:48.41 bitrate=N/A speed=19.3x    frame= 7119 fps=460 q=-0.0 size=N/A time=00:04:56.92 bitrate=N/A speed=19.2x    frame= 7362 fps=461 q=-0.0 size=N/A time=00:05:07.05 bitrate=N/A speed=19.2x    frame= 7584 fps=460 q=-0.0 size=N/A time=00:05:16.31 bitrate=N/A speed=19.2x    frame= 7855 fps=462 q=-0.0 size=N/A time=00:05:27.61 bitrate=N/A speed=19.3x    frame= 8071 fps=461 q=-0.0 size=N/A time=00:05:36.62 bitrate=N/A speed=19.2x    frame= 8339 fps=462 q=-0.0 size=N/A time=00:05:47.80 bitrate=N/A speed=19.3x    frame= 8602 fps=464 q=-0.0 size=N/A time=00:05:58.77 bitrate=N/A speed=19.3x    frame= 8849 fps=464 q=-0.0 size=N/A time=00:06:09.07 bitrate=N/A speed=19.3x    frame= 9098 fps=465 q=-0.0 size=N/A time=00:06:19.46 bitrate=N/A speed=19.4x    frame= 9357 fps=465 q=-0.0 size=N/A time=00:06:30.26 bitrate=N/A speed=19.4x    frame= 9598 fps=466 q=-0.0 size=N/A time=00:06:40.31 bitrate=N/A speed=19.4x    frame= 9852 fps=466 q=-0.0 size=N/A time=00:06:50.91 bitrate=N/A speed=19.4x    frame=10073 fps=465 q=-0.0 size=N/A time=00:07:00.12 bitrate=N/A speed=19.4x    frame=10295 fps=464 q=-0.0 size=N/A time=00:07:09.38 bitrate=N/A speed=19.4x    frame=10545 fps=465 q=-0.0 size=N/A time=00:07:19.81 bitrate=N/A speed=19.4x    frame=10744 fps=463 q=-0.0 size=N/A time=00:07:28.11 bitrate=N/A speed=19.3x    frame=10958 fps=462 q=-0.0 size=N/A time=00:07:37.03 bitrate=N/A speed=19.3x    frame=11186 fps=462 q=-0.0 size=N/A time=00:07:46.54 bitrate=N/A speed=19.3x    frame=11406 fps=461 q=-0.0 size=N/A time=00:07:55.72 bitrate=N/A speed=19.2x    frame=11661 fps=462 q=-0.0 size=N/A time=00:08:06.36 bitrate=N/A speed=19.3x    frame=11903 fps=462 q=-0.0 size=N/A time=00:08:16.45 bitrate=N/A speed=19.3x    frame=12150 fps=462 q=-0.0 size=N/A time=00:08:26.75 bitrate=N/A speed=19.3x    frame=12374 fps=462 q=-0.0 size=N/A time=00:08:36.09 bitrate=N/A speed=19.3x    frame=12628 fps=462 q=-0.0 size=N/A time=00:08:46.69 bitrate=N/A speed=19.3x    frame=12883 fps=463 q=-0.0 size=N/A time=00:08:57.32 bitrate=N/A speed=19.3x    frame=13146 fps=464 q=-0.0 size=N/A time=00:09:08.29 bitrate=N/A speed=19.3x    frame=13414 fps=465 q=-0.0 size=N/A time=00:09:19.47 bitrate=N/A speed=19.4x    frame=13638 fps=464 q=-0.0 size=N/A time=00:09:28.81 bitrate=N/A speed=19.4x    frame=13891 fps=465 q=-0.0 size=N/A time=00:09:39.37 bitrate=N/A speed=19.4x    frame=14110 fps=464 q=-0.0 size=N/A time=00:09:48.50 bitrate=N/A speed=19.3x    frame=14350 fps=464 q=-0.0 size=N/A time=00:09:58.51 bitrate=N/A speed=19.4x    frame=14637 fps=465 q=-0.0 size=N/A time=00:10:10.48 bitrate=N/A speed=19.4x    frame=14895 fps=466 q=-0.0 size=N/A time=00:10:21.24 bitrate=N/A speed=19.4x    frame=15176 fps=467 q=-0.0 size=N/A time=00:10:32.96 bitrate=N/A speed=19.5x    frame=15453 fps=468 q=-0.0 size=N/A time=00:10:44.51 bitrate=N/A speed=19.5x    frame=15711 fps=469 q=-0.0 size=N/A time=00:10:55.27 bitrate=N/A speed=19.6x    frame=15920 fps=468 q=-0.0 size=N/A time=00:11:03.99 bitrate=N/A speed=19.5x    frame=16180 fps=468 q=-0.0 size=N/A time=00:11:14.84 bitrate=N/A speed=19.5x    frame=16445 fps=469 q=-0.0 size=N/A time=00:11:25.89 bitrate=N/A speed=19.6x    frame=16698 fps=469 q=-0.0 size=N/A time=00:11:36.44 bitrate=N/A speed=19.6x    frame=16944 fps=469 q=-0.0 size=N/A time=00:11:46.70 bitrate=N/A speed=19.6x    frame=17195 fps=470 q=-0.0 size=N/A time=00:11:57.17 bitrate=N/A speed=19.6x    frame=17452 fps=470 q=-0.0 size=N/A time=00:12:07.89 bitrate=N/A speed=19.6x    frame=17702 fps=470 q=-0.0 size=N/A time=00:12:18.32 bitrate=N/A speed=19.6x    frame=17943 fps=470 q=-0.0 size=N/A time=00:12:28.37 bitrate=N/A speed=19.6x    frame=18187 fps=470 q=-0.0 size=N/A time=00:12:38.54 bitrate=N/A speed=19.6x    frame=18446 fps=471 q=-0.0 size=N/A time=00:12:49.35 bitrate=N/A speed=19.6x    frame=18623 fps=469 q=-0.0 size=N/A time=00:12:56.73 bitrate=N/A speed=19.6x    frame=18808 fps=468 q=-0.0 size=N/A time=00:13:04.45 bitrate=N/A speed=19.5x    frame=19045 fps=468 q=-0.0 size=N/A time=00:13:14.33 bitrate=N/A speed=19.5x    frame=19289 fps=468 q=-0.0 size=N/A time=00:13:24.51 bitrate=N/A speed=19.5x    frame=19508 fps=467 q=-0.0 size=N/A time=00:13:33.64 bitrate=N/A speed=19.5x    frame=19710 fps=466 q=-0.0 size=N/A time=00:13:42.07 bitrate=N/A speed=19.4x    frame=19970 fps=467 q=-0.0 size=N/A time=00:13:52.91 bitrate=N/A speed=19.5x    frame=20188 fps=466 q=-0.0 size=N/A time=00:14:02.00 bitrate=N/A speed=19.4x    frame=20443 fps=467 q=-0.0 size=N/A time=00:14:12.64 bitrate=N/A speed=19.5x    frame=20670 fps=466 q=-0.0 size=N/A time=00:14:22.11 bitrate=N/A speed=19.4x    frame=20947 fps=467 q=-0.0 size=N/A time=00:14:33.66 bitrate=N/A speed=19.5x    frame=21188 fps=467 q=-0.0 size=N/A time=00:14:43.71 bitrate=N/A speed=19.5x    frame=21419 fps=467 q=-0.0 size=N/A time=00:14:53.35 bitrate=N/A speed=19.5x    frame=21672 fps=467 q=-0.0 size=N/A time=00:15:03.90 bitrate=N/A speed=19.5x    frame=21930 fps=467 q=-0.0 size=N/A time=00:15:14.66 bitrate=N/A speed=19.5x    frame=22170 fps=467 q=-0.0 size=N/A time=00:15:24.67 bitrate=N/A speed=19.5x    frame=22417 fps=468 q=-0.0 size=N/A time=00:15:34.97 bitrate=N/A speed=19.5x    frame=22668 fps=468 q=-0.0 size=N/A time=00:15:45.44 bitrate=N/A speed=19.5x    frame=22883 fps=467 q=-0.0 size=N/A time=00:15:54.41 bitrate=N/A speed=19.5x    frame=23131 fps=467 q=-0.0 size=N/A time=00:16:04.75 bitrate=N/A speed=19.5x    frame=23411 fps=468 q=-0.0 size=N/A time=00:16:16.43 bitrate=N/A speed=19.5x    frame=23677 fps=469 q=-0.0 size=N/A time=00:16:27.52 bitrate=N/A speed=19.5x    frame=23913 fps=468 q=-0.0 size=N/A time=00:16:37.37 bitrate=N/A speed=19.5x    frame=24153 fps=469 q=-0.0 size=N/A time=00:16:47.38 bitrate=N/A speed=19.5x    frame=24413 fps=469 q=-0.0 size=N/A time=00:16:58.22 bitrate=N/A speed=19.6x    frame=24659 fps=469 q=-0.0 size=N/A time=00:17:08.48 bitrate=N/A speed=19.6x    frame=24886 fps=469 q=-0.0 size=N/A time=00:17:17.95 bitrate=N/A speed=19.5x    frame=25150 fps=469 q=-0.0 size=N/A time=00:17:28.96 bitrate=N/A speed=19.6x    frame=25382 fps=469 q=-0.0 size=N/A time=00:17:38.64 bitrate=N/A speed=19.6x    frame=25580 fps=468 q=-0.0 size=N/A time=00:17:46.89 bitrate=N/A speed=19.5x    frame=25818 fps=468 q=-0.0 size=N/A time=00:17:56.82 bitrate=N/A speed=19.5x    frame=26069 fps=468 q=-0.0 size=N/A time=00:18:07.29 bitrate=N/A speed=19.5x    frame=26323 fps=468 q=-0.0 size=N/A time=00:18:17.88 bitrate=N/A speed=19.5x    frame=26575 fps=469 q=-0.0 size=N/A time=00:18:28.39 bitrate=N/A speed=19.5x    frame=26834 fps=469 q=-0.0 size=N/A time=00:18:39.20 bitrate=N/A speed=19.6x    frame=27079 fps=469 q=-0.0 size=N/A time=00:18:49.41 bitrate=N/A speed=19.6x    frame=27318 fps=469 q=-0.0 size=N/A time=00:18:59.38 bitrate=N/A speed=19.6x    frame=27529 fps=468 q=-0.0 size=N/A time=00:19:08.18 bitrate=N/A speed=19.5x    frame=27735 fps=468 q=-0.0 size=N/A time=00:19:16.78 bitrate=N/A speed=19.5x    frame=28010 fps=468 q=-0.0 size=N/A time=00:19:28.25 bitrate=N/A speed=19.5x    frame=28258 fps=468 q=-0.0 size=N/A time=00:19:38.59 bitrate=N/A speed=19.5x    frame=28520 fps=469 q=-0.0 size=N/A time=00:19:49.52 bitrate=N/A speed=19.6x    frame=28794 fps=469 q=-0.0 size=N/A time=00:20:00.94 bitrate=N/A speed=19.6x    frame=29034 fps=469 q=-0.0 size=N/A time=00:20:10.95 bitrate=N/A speed=19.6x    frame=29279 fps=469 q=-0.0 size=N/A time=00:20:21.17 bitrate=N/A speed=19.6x    frame=29541 fps=470 q=-0.0 size=N/A time=00:20:32.10 bitrate=N/A speed=19.6x    frame=29784 fps=470 q=-0.0 size=N/A time=00:20:42.24 bitrate=N/A speed=19.6x    frame=30000 fps=469 q=-0.0 size=N/A time=00:20:51.25 bitrate=N/A speed=19.6x    frame=30230 fps=469 q=-0.0 size=N/A time=00:21:00.84 bitrate=N/A speed=19.6x    frame=30466 fps=469 q=-0.0 size=N/A time=00:21:10.68 bitrate=N/A speed=19.6x    frame=30729 fps=469 q=-0.0 size=N/A time=00:21:21.65 bitrate=N/A speed=19.6x    frame=30938 fps=469 q=-0.0 size=N/A time=00:21:30.37 bitrate=N/A speed=19.6x    frame=31171 fps=469 q=-0.0 size=N/A time=00:21:40.09 bitrate=N/A speed=19.5x    frame=31444 fps=469 q=-0.0 size=N/A time=00:21:51.47 bitrate=N/A speed=19.6x    frame=31650 fps=469 q=-0.0 size=N/A time=00:22:00.06 bitrate=N/A speed=19.5x    frame=31878 fps=468 q=-0.0 size=N/A time=00:22:09.57 bitrate=N/A speed=19.5x    frame=32095 fps=468 q=-0.0 size=N/A time=00:22:18.62 bitrate=N/A speed=19.5x    frame=32262 fps=467 q=-0.0 size=N/A time=00:22:25.59 bitrate=N/A speed=19.5x    frame=32440 fps=466 q=-0.0 size=N/A time=00:22:33.01 bitrate=N/A speed=19.4x    frame=32642 fps=466 q=-0.0 size=N/A time=00:22:41.44 bitrate=N/A speed=19.4x    frame=32835 fps=465 q=-0.0 size=N/A time=00:22:49.49 bitrate=N/A speed=19.4x    frame=33010 fps=464 q=-0.0 size=N/A time=00:22:56.79 bitrate=N/A speed=19.4x    frame=33185 fps=463 q=-0.0 size=N/A time=00:23:04.09 bitrate=N/A speed=19.3x    frame=33344 fps=462 q=-0.0 size=N/A time=00:23:10.72 bitrate=N/A speed=19.3x    frame=33545 fps=461 q=-0.0 size=N/A time=00:23:19.10 bitrate=N/A speed=19.2x    frame=33803 fps=462 q=-0.0 size=N/A time=00:23:29.86 bitrate=N/A speed=19.3x    frame=34083 fps=462 q=-0.0 size=N/A time=00:23:41.54 bitrate=N/A speed=19.3x    frame=34307 fps=462 q=-0.0 size=N/A time=00:23:50.88 bitrate=N/A speed=19.3x    frame=34526 fps=462 q=-0.0 size=N/A time=00:24:00.02 bitrate=N/A speed=19.3x    [Parsed_psnr_10 @ 00000266ec182500] PSNR y:46.874386 u:49.160872 v:48.158321 average:47.384769 min:36.838265 max:inf
[out#0/null @ 00000266e4654e80] video:14850KiB audio:271252KiB subtitle:0KiB other streams:0KiB global headers:0KiB muxing overhead: unknown
frame=34561 fps=462 q=-0.0 Lsize=N/A time=00:24:01.48 bitrate=N/A speed=19.3x    
